<?xml version="1.0" encoding="utf-8"?>
<!-- Generator: Adobe Illustrator 26.5.0, SVG Export Plug-In . SVG Version: 6.00 Build 0)  -->
<svg version="1.1" id="Layer_1" xmlns="http://www.w3.org/2000/svg" xmlns:xlink="http://www.w3.org/1999/xlink" x="0px" y="0px"
	 viewBox="0 0 156 156" style="enable-background:new 0 0 156 156;" xml:space="preserve">
<style type="text/css">
	.st0{fill:#F6F6F6;}
	.st1{fill:#2AA7C0;stroke:#2AA7C0;stroke-width:0.75;stroke-miterlimit:10;}
	.st2{fill:#2AA7C0;}
	.st3{fill:#2AA7C0;stroke:#2AA7C0;stroke-miterlimit:10;}
</style>
<g>
	<g>
		<circle class="st0" cx="78" cy="78" r="78"/>
	</g>
	<g>
		<path class="st1" d="M128.69,67.06c-4.29-20.8-20.7-36.58-41.67-40.26c-1.91-0.34-3.84-0.53-5.77-0.8c-2.01,0-4.03,0-6.04,0
			c-1.92,0.26-3.86,0.44-5.76,0.79c-12.56,2.27-22.97,8.31-31.1,18.14c-6.88,8.33-10.62,17.98-11.51,28.74
			c-0.02,0.29-0.12,0.58-0.18,0.87c0,2.01,0,4.03,0,6.04c0.2,1.56,0.35,3.12,0.6,4.67c2.1,13.14,8.2,24.1,18.61,32.37
			c10.54,8.37,22.16,12.09,34.67,11.41c0,0.01-0.01,0.02-0.01,0.03c3.14-0.14,6.25-0.58,9.33-1.31c0.68-0.15,1.37-0.31,2.06-0.48
			c1.52-0.38,3.01-0.93,4.49-1.46c0.18-0.07,0.34-0.14,0.49-0.23c7.76-2.97,14.36-7.53,19.77-13.66c2.59-2.91,4.84-6.11,6.74-9.6
			C129.47,91.2,131.24,79.41,128.69,67.06z M82.24,30.86c0.24-0.28,0.78-0.5,1.15-0.46c11.21,1.27,20.82,5.89,28.76,13.9
			c5.71,5.76,9.61,12.6,11.8,20.42c0.07,0.27,0.05,0.73-0.12,0.87c-1.27,1.08-2.1,2.41-2.43,4.11c-0.73-3.01-2.31-5.45-4.38-7.62
			c-0.98-1.03-2.04-1.89-3.48-2c-1.3-0.1-2.62-0.1-3.92-0.02c-1.74,0.1-2.9,1.66-2.58,3.38c0.1,0.54,0.38,1.05,0.67,1.82
			c-2.12,1.26-4.29,2.55-6.52,3.87c-1.31-2.51-2.53-4.75-3.65-7.03c-0.34-0.69-0.41-1.51-0.6-2.27c-0.15-0.6-0.11-1.37-0.48-1.79
			c-1.96-2.22-4.02-4.34-6.92-5.23c-6.38-2.74-13.3-3.81-19.29-2.91c-0.77,0.07-1.53,0.18-2.26,0.37c-2.11,0.56-3.69,1.96-4.99,3.83
			c-0.95-1.34-1.87-2.57-2.71-3.86c-0.15-0.23-0.1-0.7,0.02-1c0.75-1.9,1.5-3.8,2.34-5.66c0.2-0.45,0.68-0.91,1.13-1.08
			c3.84-1.4,7.72-2.7,11.55-4.12c0.74-0.27,1.47-0.81,1.99-1.42C79,34.97,80.57,32.88,82.24,30.86z M72.94,64
			c1.71,0.9,3.37,1.92,5.13,2.68c1.37,0.59,2.65,0.04,3.6-1.08c0.42-0.49,0.77-0.55,1.37-0.38c4.33,1.21,4.31,1.21,6.05,5.29
			c0.9,2.12,1.81,4.26,2.9,6.29c1.17,2.18,2.9,3.77,5.53,4.04c0.29,0.03,0.58,0.13,1.03,0.24c-0.6,0.66-1.13,1.25-1.67,1.82
			c-1.27,1.34-2.64,2.59-3.8,4.01c-1.69,2.09-1.99,4.52-1.09,7.02c0.53,1.47,0.15,2.5-0.84,3.63c-0.91,1.03-1.53,2.32-2.27,3.5
			c-0.05,0.08-0.07,0.19-0.13,0.27c-1.28,1.79-2.6,3.57-2.96,5.84c-1.25,0.99-2.48,2-3.76,2.94c-0.14,0.11-0.59-0.2-0.9-0.32
			c-0.05-0.02-0.08-0.11-0.1-0.17c-1.34-3.28-2.75-6.54-3.98-9.86c-0.28-0.77-0.13-1.79,0.08-2.63c0.42-1.66,0.92-3.29,0.58-5.04
			c-0.28-1.46-0.99-2.67-1.92-3.81c-0.45-0.56-0.82-1.32-0.88-2.03c-0.4-4.38-3.01-6.28-7.37-5.39c-1.49,0.3-3.09,0.62-4.56,0.39
			c-5-0.8-7.52-6.29-5.17-10.99c0.28-0.57,0.62-1.12,1.01-1.62c1.59-2.04,3.16-4.08,4.83-6.05c0.44-0.52,1.17-0.99,1.82-1.09
			c1.88-0.27,3.8-0.33,5.93-0.49C71.03,62.62,71.82,63.41,72.94,64z M31.49,69.42c1.8-10.08,6.36-18.71,13.65-25.89
			c0.19-0.19,0.67-0.27,0.92-0.18c2.91,1.13,4.15,4.87,2.03,7.12c-3.38,3.59-5.33,8.01-7.88,12.09c-0.24,0.38-0.58,0.74-0.94,1.01
			c-1.26,0.94-2.57,1.83-3.84,2.76c-1.28,0.95-1.45,1.96-0.59,3.29c0.47,0.73,0.97,1.44,1.5,2.23c-2.14,0.6-3.79,0.01-4.82-1.69
			C31.41,69.98,31.44,69.66,31.49,69.42z M47.43,106.7c-0.38,1.8-0.69,3.62-1.04,5.43c-0.03,0.15-0.11,0.29-0.25,0.67
			c-1.72-1.91-3.44-3.61-4.93-5.49c-5.14-6.44-8.44-13.73-9.84-21.86c-0.13-0.73,0.08-1.01,0.75-1.2c1.35-0.38,2.77-1.31,4.01-1.11
			c1.24,0.2,2.29,1.52,3.42,2.35c0.59,0.44,1.23,0.84,1.75,1.35c2.29,2.21,5.06,3.32,8.19,3.61c0.23,0.02,0.46,0.09,0.69,0.14
			c1.54,0.37,2.25,1.37,1.85,2.9c-0.44,1.67-0.26,3.25,0.31,4.83c0.11,0.31,0.24,0.63,0.31,0.95c0.33,1.44-0.15,2.52-1.58,2.93
			C47.54,103.2,48.08,103.65,47.43,106.7z M125.17,84.5c-1.47,9.48-5.25,17.7-11.4,24.6c-0.02,0-0.04,0-0.06,0
			c-2.11,2.39-4.53,4.6-7.19,6.55c-7.69,5.63-16.11,8.76-25.27,9.32c0,0.03,0,0.05-0.01,0.08c-2.56,0.17-5.15,0.12-7.76-0.14
			c-8.5-0.85-16.21-3.79-23.11-8.83c-0.26-0.19-0.46-0.72-0.41-1.04c0.46-2.68,0.97-5.34,1.53-8c0.08-0.36,0.48-0.72,0.82-0.95
			c0.83-0.55,1.83-0.9,2.54-1.57c1.98-1.87,2.38-4.21,1.52-6.75c-0.45-1.33-0.61-2.6-0.33-4.02c0.52-2.62-0.76-5.21-3.17-6.38
			c-1.21-0.59-2.59-0.9-3.94-1.11c-1.61-0.26-2.97-0.84-4.23-1.87c-2.11-1.72-4.33-3.29-6.46-4.97c-0.88-0.69-1.76-0.84-2.81-0.47
			c-1.47,0.52-2.97,0.97-4.57,1.48c0-1.82,0-3.51,0-5.21c0.07-0.06,0.13-0.12,0.2-0.18c0.76,1.49,2.04,1.4,3.29,1.24
			c1.83-0.23,3.66-0.5,5.47-0.8c2-0.33,2.61-1.84,1.46-3.55c-0.72-1.08-1.46-2.15-2.21-3.25c0.69-0.5,1.26-0.98,1.89-1.35
			c1.46-0.87,2.42-2.13,3.26-3.59c2.16-3.77,4.15-7.62,7.13-10.9c2.28-2.51,2.43-5.73,0.86-8.76c-0.76-1.47-2.01-2.69-3.04-4.03
			c8.04-6.6,19.45-10.08,28.43-9.89c-1.03,1.3-1.97,2.55-2.99,3.73c-0.35,0.41-0.84,0.77-1.34,0.95c-3.94,1.42-7.89,2.81-11.85,4.16
			c-1.08,0.37-1.74,1.01-2.15,2.06c-0.98,2.49-1.96,5-3.08,7.43c-0.65,1.41-0.49,2.49,0.44,3.7c1.68,2.2,3.24,4.5,4.85,6.75
			c-1.84,2.29-3.64,4.49-5.4,6.74c-0.68,0.87-1.34,1.78-1.83,2.76c-4.03,8.15,1.68,17.46,10.69,16.95c1.39-0.08,2.77-0.47,4.16-0.69
			c1.19-0.19,1.75,0.22,1.73,1.42c-0.02,1.92,0.61,3.54,1.97,4.89c0.99,0.99,1.21,2.2,0.86,3.53c-0.16,0.62-0.33,1.23-0.53,1.83
			c-0.49,1.49-0.55,3.01-0.01,4.45c1.32,3.47,2.75,6.91,4.16,10.34c0.21,0.52,0.57,0.99,0.91,1.44c0.92,1.22,2.16,1.85,3.67,1.63
			c3.48-0.51,6.04-2.55,7.57-5.54c0.87-1.71,1.7-3.42,2.63-5.11c0.9-1.62,1.86-3.14,3.03-4.57c1.14-1.39,1.53-3.03,1.1-4.82
			c-0.15-0.62-0.29-1.24-0.48-1.85c-0.36-1.16-0.14-2.22,0.66-3.09c1.22-1.33,2.57-2.56,3.75-3.93c0.97-1.13,1.96-2.32,2.62-3.64
			c0.88-1.75-0.01-3.55-1.88-4.18c-0.76-0.26-1.55-0.44-2.34-0.54c-1.22-0.14-2.16-0.68-2.79-1.74c-0.41-0.69-0.83-1.38-1.16-2.11
			c-0.89-1.99-1.75-3.99-2.57-6c-1.04-2.54-2.75-4.33-5.46-5.05c-1.07-0.29-2.14-0.58-3.18-0.95c-2.02-0.71-3.67-0.21-5.05,1.47
			c-0.62-0.37-1.27-0.72-1.85-1.15c-0.22-0.16-0.4-0.53-0.39-0.79c0.03-1.47-0.68-2.54-1.99-2.95c-1.28-0.39-2.68-0.51-4.03-0.57
			c-1.33-0.06-2.66,0.11-4.02,0.19c0.46-1.67,1.77-2.94,3.5-3.32c0.74-0.16,1.53-0.15,2.3-0.2c0.37-0.03,0.71-0.12,1-0.27
			c4.25-0.27,8.92,0.47,13.4,2.14c0.24,0.28,0.57,0.53,1,0.7c0.77,0.32,1.69,0.4,2.34,0.88c1.5,1.09,3.45,1.91,3.36,4.3
			c-0.01,0.38,0.16,0.79,0.34,1.14c1.6,3.1,3.21,6.19,4.83,9.28c0.77,1.47,1.58,1.77,3.14,1.22c3.68-1.29,7-3.19,9.89-5.84
			c1-0.91,1.54-1.84,0.77-3.47c0.75,0.23,1.43,0.24,1.74,0.58c1.31,1.46,2.75,2.81,3.32,4.83c0.52,1.87,1.29,3.66,1.97,5.49
			c0.69,1.86,2.3,2.27,3.67,0.85c1.03-1.07,1.92-2.29,2.8-3.36C125.88,76.22,125.81,80.37,125.17,84.5z"/>
		<path class="st1" d="M108.23,91.61c-0.24-0.8-0.83-1.28-1.69-1.37c-0.86-0.08-1.5,0.28-1.94,1c-0.18,0.28-0.34,0.58-0.45,0.9
			c-0.58,1.55-1.58,2.59-3.12,3.32c-2.28,1.09-3.05,2.87-2.81,5.38c0.07,0.7-0.1,1.44-0.26,2.14c-0.25,1.07-0.59,2.12-0.88,3.14
			c0.19,0.77,0.26,1.5,0.56,2.12c0.75,1.54,1.83,2.79,3.67,2.92c1.75,0.12,2.86-0.97,3.7-2.35c0.41-0.68,0.8-1.41,1.04-2.16
			c1.07-3.31,2.1-6.64,3.11-9.97c0.12-0.4,0.17-0.88,0.08-1.29C108.95,94.12,108.61,92.85,108.23,91.61z M101.57,106.75
			c-0.12-0.04-0.24-0.09-0.36-0.13c0.1-0.53,0.13-1.09,0.32-1.58c0.6-1.55,1.03-3.08,0.73-4.78c-0.07-0.38,0.35-0.94,0.69-1.26
			c0.34-0.33,0.87-0.47,1.55-0.82C103.57,101.2,102.98,104.11,101.57,106.75z"/>
	</g>
</g>
</svg>
