<svg xmlns="http://www.w3.org/2000/svg" width="156" height="156" viewBox="0 0 156 156"><g data-name="Group 59"><g data-name="Group 48"><circle data-name="Ellipse 1" cx="78" cy="78" r="78" fill="#f6f6f6"/></g><path data-name="Path 6442" d="M112.648 71.194l-3.3-.8a29.539 29.539 0 00-3.643-8.88l1.708-2.789a1.981 1.981 0 00-.285-2.391l-5.522-5.519a1.971 1.971 0 00-2.391-.285l-2.789 1.708a27.608 27.608 0 00-8.88-3.643l-.8-3.3a1.948 1.948 0 00-1.878-1.48h-7.8a1.948 1.948 0 00-1.878 1.48l-.8 3.3a29.539 29.539 0 00-8.88 3.643l-2.789-1.708a1.981 1.981 0 00-2.391.285l-5.515 5.523a1.971 1.971 0 00-.285 2.391l1.709 2.786a27.608 27.608 0 00-3.643 8.88l-3.3.8a1.948 1.948 0 00-1.48 1.878v7.8a1.948 1.948 0 001.48 1.878l3.3.8a29.372 29.372 0 004.1 9.506l-7.172 7.172a5.836 5.836 0 108.254 8.254l7.172-7.172a30.09 30.09 0 009.506 4.1l.8 3.3a1.948 1.948 0 001.878 1.48h7.8a1.948 1.948 0 001.878-1.48l.8-3.3a29.539 29.539 0 008.88-3.643l2.789 1.708a1.981 1.981 0 002.391-.285l5.521-5.521a1.971 1.971 0 00.285-2.391l-1.708-2.789a27.609 27.609 0 003.643-8.88l3.3-.8a1.948 1.948 0 001.48-1.878v-7.8a1.948 1.948 0 00-1.48-1.878zM54.93 105.745a1.932 1.932 0 11-2.732-2.732l13.889-13.889 5.692-5.692a2 2 0 00.4-2.22 9.95 9.95 0 01-.8-6.034 9.78 9.78 0 017.741-7.741 10.34 10.34 0 011.821-.171 5.1 5.1 0 011.366.114l-2.73 2.735a5.836 5.836 0 008.254 8.254l2.732-2.732a10.371 10.371 0 01-.057 3.245 9.78 9.78 0 01-7.741 7.733 9.548 9.548 0 01-6.034-.8 1.91 1.91 0 00-2.22.4l-5.696 5.7-13.885 13.887zm38.308-34.608a1.978 1.978 0 00-1.423-1.081 1.929 1.929 0 00-1.708.569l-5.009 5.009a1.932 1.932 0 01-2.732-2.732l5.009-5.009a2.1 2.1 0 00.569-1.708 1.848 1.848 0 00-1.082-1.423 13.394 13.394 0 00-8.424-1.082 13.615 13.615 0 00-10.3 17.987l-2.96 2.96a17.328 17.328 0 01-1.48-10.3A17.719 17.719 0 0178.215 59.81a17.475 17.475 0 0120.032 20.036A17.51 17.51 0 0173.43 92.881l2.96-2.96a13.653 13.653 0 0016.905-18.727zm17.019 8.254l-3.017.74a2.036 2.036 0 00-1.48 1.537 24.944 24.944 0 01-3.984 9.677 1.891 1.891 0 00-.057 2.106l1.537 2.564-3.358 3.358-2.561-1.537a2.007 2.007 0 00-2.106.057 24.592 24.592 0 01-9.677 3.984 1.877 1.877 0 00-1.539 1.478l-.74 3.017h-4.722l-.74-3.017a2.036 2.036 0 00-1.537-1.48 25.131 25.131 0 01-8.652-3.36l2.846-2.846a21.423 21.423 0 0031.591-15.31 21.413 21.413 0 00-36.316-18.5 21.347 21.347 0 00-3.586 25.556l-2.844 2.848a24.7 24.7 0 01-3.36-8.648 1.877 1.877 0 00-1.48-1.537l-3.017-.74v-4.729l3.017-.74a2.036 2.036 0 001.48-1.537 24.944 24.944 0 013.984-9.677 1.891 1.891 0 00.057-2.106l-1.537-2.561 3.356-3.358 2.561 1.537a2.007 2.007 0 002.109-.052 24.591 24.591 0 019.677-3.984 1.877 1.877 0 001.537-1.48l.74-3.017h4.724l.74 3.017a2.036 2.036 0 001.537 1.48 24.944 24.944 0 019.675 3.984 1.891 1.891 0 002.106.057l2.561-1.537 3.358 3.358-1.537 2.561a2.007 2.007 0 00.057 2.106 24.591 24.591 0 013.985 9.677 1.877 1.877 0 001.48 1.537l3.017.74v4.724z" fill="#27a6bf"/></g></svg>