<?xml version="1.0" encoding="utf-8"?>
<!-- Generator: Adobe Illustrator 26.5.0, SVG Export Plug-In . SVG Version: 6.00 Build 0)  -->
<svg version="1.1" id="Layer_1" xmlns="http://www.w3.org/2000/svg" xmlns:xlink="http://www.w3.org/1999/xlink" x="0px" y="0px"
	 viewBox="0 0 156 156" style="enable-background:new 0 0 156 156;" xml:space="preserve">
<style type="text/css">
	.st0{fill:#F6F6F6;}
	.st1{fill:#2AA7C0;}
	.st2{fill:#2AA7C0;stroke:#2AA7C0;stroke-miterlimit:10;}
</style>
<g>
	<g>
		<circle class="st0" cx="78" cy="78" r="78"/>
	</g>
	<g>
		<path class="st2" d="M98,121.4c-1.6,2.7-3.2,5.2-4.8,7.8c-0.5,0.8-1,1.5-2,1.4c-1-0.1-1.4-0.9-1.7-1.8c-3.1-8.5-6.2-17-9.3-25.4
			c-0.1-0.3-0.3-0.7-0.4-1c-1.2,0-2.4,0-3.7,0c-0.1,0.3-0.2,0.6-0.4,1c-3.1,8.4-6.1,16.8-9.2,25.2c-0.1,0.2-0.1,0.5-0.2,0.6
			c-0.5,0.5-1,1.2-1.5,1.3c-0.6,0.1-1.4-0.4-1.8-1c-1.5-2.3-2.9-4.7-4.4-7.1c-0.2-0.3-0.4-0.7-0.7-1.1c-2.7,0.9-5.5,1.8-8.2,2.8
			c-1,0.3-2,0.9-3-0.1c-0.9-1-0.3-1.9,0-2.9c3-8.3,6-16.6,9.1-24.9c0.3-0.8,0.2-1.4-0.2-2.1c-0.5-0.7-0.9-1.5-1.3-2.3
			c-1-2.1-2.5-3.5-4.6-4.5c-1.1-0.5-2.1-1.1-3-1.8c-2.2-1.5-3.2-3.7-3.3-6.4c0-0.9,0-1.9,0.1-2.9c0.2-2.3-0.4-4.3-1.7-6.2
			c-3.3-4.8-3.3-7.8,0-12.5c1.3-1.9,1.9-3.9,1.7-6.2c-0.1-1.3-0.1-2.6,0-3.8c0.3-3.3,2.4-5.4,5.2-6.7c2.9-1.3,4.9-3.2,6.2-6.2
			c1.7-3.7,4.7-5.6,8.8-5.4c0.5,0,1,0,1.5,0.1c2.5,0.3,4.7-0.4,6.7-1.9c0.2-0.2,0.5-0.3,0.7-0.5c3.6-2.3,7.2-2.3,10.6,0.2
			c2.5,1.8,5.1,2.5,8.1,2.3c4.9-0.4,7.7,1.3,9.7,5.8c1.1,2.5,2.9,4.2,5.4,5.4c4.5,2,6.2,4.8,5.8,9.7c-0.2,3,0.5,5.6,2.2,8.1
			c2.7,3.9,2.6,7,0,10.9c-1.7,2.5-2.4,5-2.2,8c0.4,5-1.3,7.7-5.9,9.8c-2.3,1.1-4.1,2.6-5.1,5c-0.2,0.4-0.3,0.8-0.6,1.1
			c-1.3,1.4-0.9,2.8-0.3,4.4c3,8,5.9,16.1,8.8,24.2c0.5,1.5,0,2.6-1.3,2.8c-0.4,0-0.9-0.1-1.3-0.2C103.9,123.4,101,122.5,98,121.4z
			 M90.5,94.8c0.3,0,0.6,0,0.9,0.1c3.8,0.2,5.2-0.6,6.8-4.1c1.4-3.1,3.6-5.3,6.8-6.7c3.4-1.5,4.3-3,4-6.7c-0.3-3.6,0.6-6.8,2.7-9.8
			c2-2.9,2-4.4,0-7.3c-2.1-3-3-6.2-2.7-9.9c0.3-3.6-0.6-5.1-4-6.6c-3.2-1.4-5.4-3.6-6.8-6.8c-1.5-3.4-2.9-4.3-6.7-4
			c-3.6,0.3-6.8-0.6-9.8-2.7c-2.9-2.1-4.4-2.1-7.3,0c-3,2.1-6.2,3-9.9,2.7c-3.7-0.3-5.1,0.6-6.6,4c-1.4,3.2-3.6,5.4-6.8,6.8
			c-3.4,1.5-4.2,2.9-4,6.7c0,0.1,0,0.1,0,0.2c0.4,3.5-0.6,6.6-2.6,9.5c-2.1,3-2,4.4-0.1,7.5c0.3,0.4,0.6,0.8,0.9,1.3
			c1.1,1.8,1.9,3.7,1.9,5.9c0,1.2,0,2.5-0.1,3.7c-0.1,2.2,0.8,4,2.9,4.9c4.1,1.7,6.9,4.5,8.6,8.6c0.9,2.1,2.7,3,5,2.9
			c0.8,0,1.6,0,2.4-0.1c3-0.3,5.5,0.7,7.9,2.4c3.4,2.3,5.1,2.4,8.5,0C84.7,95.5,87.4,94.5,90.5,94.8z M64.2,124.9
			c3-8.2,5.8-16.1,8.7-24c-2.1-1.5-4.1-2.8-6.8-2.6c-2.3,0.2-4.7,0.3-7-0.7c-2.7,7.5-5.4,14.8-8.1,22.2c0.2,0.1,0.3,0.1,0.3,0.1
			c2-0.7,4.1-1.4,6.1-2c1.7-0.6,2.1-0.4,3.1,1.1C61.8,120.9,62.9,122.8,64.2,124.9z M91.7,124.8c0.3-0.4,0.5-0.7,0.7-1
			c1.1-1.7,2.1-3.4,3.1-5.1c0.7-1.1,1.3-1.3,2.5-0.9c0.8,0.2,1.5,0.5,2.3,0.8c1.5,0.5,2.9,1,4.6,1.5c-2.8-7.6-5.5-15-8-22
			c-2.3,0.1-4.3,0.4-6.3,0.3c-3-0.2-5.3,0.9-7.6,2.6C85.9,108.9,88.8,116.7,91.7,124.8z"/>
		<path class="st2" d="M77.9,92c-15.6-0.1-28.1-12.7-28-28.4c0.1-15.4,12.8-27.9,28.2-27.9c15.6,0.1,28.1,12.7,28,28.4
			C106,79.6,93.3,92.1,77.9,92z M53.4,63.9c0,13.5,11,24.6,24.5,24.6c13.7,0,24.7-11,24.7-24.7c0-13.5-11.1-24.5-24.6-24.5
			C64.4,39.3,53.4,50.3,53.4,63.9z"/>
		<path class="st2" d="M96.4,58.7c-0.2,0.3-0.5,0.9-0.9,1.3c-2.1,2.1-4.3,4.3-6.5,6.4c-0.5,0.5-0.7,1-0.6,1.7c0.5,3,1,6.1,1.6,9.1
			c0.2,0.9,0.1,1.6-0.6,2.2c-0.8,0.6-1.5,0.3-2.3-0.1c-2.7-1.4-5.4-2.8-8-4.3c-0.7-0.4-1.3-0.4-2,0c-2.7,1.5-5.4,2.8-8,4.2
			c-0.8,0.4-1.5,0.6-2.3,0c-0.7-0.6-0.8-1.3-0.6-2.2c0.5-3,1-6,1.6-9c0.1-0.8,0-1.3-0.6-1.8c-2.2-2.1-4.4-4.2-6.5-6.3
			c-0.6-0.6-1.1-1.2-0.8-2.1c0.3-0.9,1-1.2,1.9-1.3c3-0.4,6-0.9,9-1.3c0.8-0.1,1.2-0.4,1.5-1.1c1.3-2.7,2.7-5.4,4-8.1
			c0.4-0.8,0.9-1.4,1.9-1.4c1,0,1.5,0.7,1.9,1.5c1.3,2.7,2.7,5.4,4,8.1c0.4,0.8,0.9,1,1.7,1.1c3,0.4,6.1,0.9,9.1,1.3
			C95.7,56.8,96.3,57.5,96.4,58.7z M70,74.7c2-1,3.9-1.9,5.6-3c1.6-1.1,3-1,4.6,0c1.7,1.1,3.6,1.9,5.6,2.9c-0.4-2.5-0.8-4.9-1.2-7.2
			c-0.2-1.1,0-2,0.9-2.7c1.5-1.4,2.9-2.8,4.4-4.3c0.2-0.2,0.5-0.5,0.8-0.9c-2.2-0.3-4.3-0.8-6.4-0.9c-1.9-0.1-2.9-1-3.6-2.6
			C80,54.2,79,52.4,78,50.3c-1.1,2.3-2.2,4.3-3.1,6.4c-0.6,1.3-1.4,1.8-2.8,1.9c-2.2,0.2-4.5,0.6-6.9,1c0.4,0.4,0.6,0.6,0.8,0.9
			c1.4,1.4,2.9,2.8,4.3,4.2c0.9,0.8,1.1,1.7,0.9,2.8C70.8,69.9,70.5,72.2,70,74.7z"/>
	</g>
</g>
</svg>
