<?xml version="1.0" encoding="utf-8"?>
<!-- Generator: Adobe Illustrator 26.5.0, SVG Export Plug-In . SVG Version: 6.00 Build 0)  -->
<svg version="1.1" id="Layer_1" xmlns="http://www.w3.org/2000/svg" xmlns:xlink="http://www.w3.org/1999/xlink" x="0px" y="0px"
	 viewBox="0 0 156 156" style="enable-background:new 0 0 156 156;" xml:space="preserve">
<style type="text/css">
	.st0{fill:#F6F6F6;}
	.st1{fill:#2AA7C0;stroke:#2AA7C0;stroke-width:2;stroke-miterlimit:10;}
	.st2{fill:#2AA7C0;stroke:#2AA7C0;stroke-width:0.25;stroke-miterlimit:10;}
	.st3{fill:#2AA7C0;stroke:#2AA7C0;stroke-miterlimit:10;}
	.st4{fill:#2AA7C0;stroke:#2AA7C0;stroke-width:0.2725;stroke-miterlimit:10;}
	.st5{fill:#2AA7C0;stroke:#2AA7C0;stroke-width:1.5;stroke-miterlimit:10;}
	.st6{fill:#2AA7C0;stroke:#2AA7C0;stroke-width:2.315;stroke-miterlimit:10;}
	.st7{fill:#2AA7C0;stroke:#2AA7C0;stroke-width:0.6025;stroke-miterlimit:10;}
</style>
<g>
	<g>
		<circle class="st0" cx="78" cy="78" r="78"/>
	</g>
</g>
<g>
	<path class="st1" d="M110,123.5c-1.8-1.8-3.5-3.6-5.3-5.4c-2.9-3-5.7-5.9-8.6-8.9c-0.4-0.5-0.9-0.7-1.5-0.7c-8,0-16.1,0-24.1,0
		c-4,0-7.2-2.4-8.1-6.2c-0.2-0.8-0.3-1.6-0.3-2.5c0-6.6,0-13.2,0-19.7c0-0.4,0-0.7,0-1.1c-1-0.2-1.8-0.2-2.7,0.6
		c-4.1,4.3-8.2,8.6-12.4,12.9c-0.2,0.2-0.4,0.4-0.6,0.6c-0.5,0.5-1.1,0.8-1.7,0.5c-0.7-0.3-0.9-0.9-0.9-1.6c0-3.2,0-6.5,0-9.7
		c0-1.1,0-2.2,0-3.5c-1,0-2,0-2.9,0c-5.3,0-8.6-3.3-8.6-8.6c0-9.8,0-19.6,0-29.4c0-5.2,3.4-8.5,8.5-8.5c14.6,0,29.3,0,43.9,0
		c5.1,0,8.5,3.4,8.5,8.5c0,6.5,0,13,0,19.6c0,0.4,0,0.7,0,1.2c0.4,0,0.7,0,1.1,0c6.7,0,13.5,0,20.2,0c4.8,0,7.5,2.1,8.7,6.7
		c0,0.1,0.1,0.1,0.1,0.1c0,11,0,22.1,0,33.1c0,0-0.1,0.1-0.1,0.1c-1.2,4.6-4,6.8-8.8,6.8c-0.9,0-1.8,0-2.7,0c0,0.4,0,0.7,0,1.1
		c0,3.9,0,7.9,0,11.8c0,0.9-0.2,1.6-0.9,2.1C110.7,123.5,110.4,123.5,110,123.5z M108.9,118.5c0.1,0,0.1-0.1,0.2-0.1
		c0-0.3,0-0.6,0-0.8c0-3.3,0-6.6,0-9.9c0-1.5,0.4-1.9,1.9-1.9c1.3,0,2.6,0,3.9,0c3.6,0,5.7-2.1,5.7-5.7c0-9.9,0-19.7,0-29.6
		c0-3.7-2.1-5.8-5.8-5.8c-14.7,0-29.4,0-44.1,0c-0.6,0-1.3,0-1.8,0.2c-2.4,0.6-3.9,2.6-3.9,5.4c0,9.9,0,19.8,0,29.7
		c0,3.8,2.1,5.9,5.9,5.9c8.2,0,16.4,0,24.6,0c0.8,0,1.5,0.2,2,0.9c3.5,3.7,7,7.3,10.5,11C108.4,117.8,108.7,118.2,108.9,118.5z
		 M90.5,61.8c0-0.3,0.1-0.4,0.1-0.6c0-6.9,0-13.8,0-20.6c0-3.1-2.2-5.2-5.4-5.2c-14.8,0-29.6,0-44.4,0c-3.3,0-5.5,2.2-5.5,5.5
		c0,9.9,0,19.9,0,29.8c0,3.4,2.1,5.5,5.6,5.6c1.3,0,2.7,0,4,0c1.5,0,2,0.4,2,1.9c0,3.2,0,6.4,0,9.6c0,0.3,0,0.6,0,0.9
		c0.1,0,0.1,0.1,0.2,0.1c0.2-0.2,0.4-0.5,0.6-0.7c3.5-3.7,7.1-7.3,10.6-11c0.6-0.6,1.1-0.9,1.9-0.8c0.6,0,1.3,0,2,0c0-2,0-4,0-5.9
		c0-0.8,0.1-1.6,0.2-2.4c0.9-3.8,4-6.1,8.2-6.2c6.3,0,12.5,0,18.8,0C89.7,61.8,90.1,61.8,90.5,61.8z"/>
	<path class="st1" d="M92.9,86.6c-4.4,0-8.8,0-13.2,0c-0.3,0-0.7,0-1,0c-0.7-0.1-1.1-0.5-1.1-1.2c-0.1-0.7,0.2-1.2,0.9-1.5
		c0.3-0.1,0.6-0.1,0.9-0.1c9,0,18,0,27,0c0.3,0,0.6,0,0.9,0.1c0.7,0.2,1,0.8,0.9,1.4c-0.1,0.7-0.5,1.1-1.2,1.3c-0.3,0-0.7,0-1,0
		C101.6,86.6,97.2,86.6,92.9,86.6z"/>
	<path class="st1" d="M92.8,95.3c-4.5,0-9,0-13.4,0c-0.4,0-1-0.1-1.3-0.4c-0.3-0.3-0.5-0.9-0.5-1.3c0.1-0.4,0.5-0.8,0.9-1
		c0.3-0.2,0.7-0.1,1-0.1c8.8,0,17.7,0,26.5,0c0.1,0,0.3,0,0.4,0c1,0,1.6,0.6,1.6,1.4c0,0.9-0.6,1.4-1.7,1.4
		C102,95.3,97.4,95.3,92.8,95.3z"/>
	<path class="st1" d="M92.9,77.8c-4.4,0-8.8,0-13.2,0c-0.3,0-0.6,0-0.9,0c-0.7-0.1-1.1-0.5-1.1-1.2c-0.1-0.7,0.2-1.2,0.8-1.4
		c0.3-0.1,0.7-0.2,1.1-0.2c8.9,0,17.8,0,26.7,0c0.2,0,0.4,0,0.5,0c0.9,0.1,1.5,0.7,1.5,1.5c0,0.8-0.6,1.4-1.6,1.4
		C102,77.8,97.5,77.8,92.9,77.8z"/>
	<path class="st1" d="M50.4,62.2c0-3.2,1.3-5.5,4.2-6.9c2.9-1.5,4.1-4.6,3.2-7.5c-0.9-2.9-3.7-4.6-6.8-4.3c-3,0.3-5.2,2.8-5.4,6
		c-0.1,1-0.7,1.7-1.5,1.6c-0.8-0.1-1.3-0.7-1.3-1.7c0-4.4,3.6-8.3,8-8.8c4.7-0.5,9,2.6,9.9,7.1c0.8,4-1,8-4.7,9.9
		c-2,1-2.9,2.5-2.8,4.7c0,0.3,0,0.6,0,0.9c-0.1,0.8-0.6,1.4-1.3,1.4c-0.8,0-1.4-0.5-1.5-1.3C50.4,63,50.4,62.6,50.4,62.2z"/>
	<path class="st1" d="M76.7,43.8c1.7,0,3.4,0,5.1,0c1.1,0,1.7,0.5,1.7,1.4c0,0.8-0.6,1.5-1.7,1.5c-3.4,0-6.9,0-10.3,0
		c-1,0-1.7-0.6-1.7-1.4c0-0.9,0.6-1.4,1.7-1.4C73.3,43.8,75,43.8,76.7,43.8z"/>
	<path class="st1" d="M76.7,55.3c-1.7,0-3.4,0-5.1,0c-1.2,0-1.9-0.9-1.5-1.9c0.2-0.6,0.7-0.9,1.4-0.9c3.5,0,7.1,0,10.6,0
		c0.9,0,1.5,0.6,1.5,1.4c0,0.8-0.6,1.4-1.5,1.4C80.2,55.4,78.4,55.3,76.7,55.3C76.7,55.3,76.7,55.3,76.7,55.3z"/>
	<path class="st1" d="M51.8,67c1.3,0,2.3,1,2.3,2.3c0,1.3-1,2.3-2.3,2.3c-1.3,0-2.3-1-2.4-2.3C49.5,68.1,50.6,67,51.8,67z"/>
</g>
</svg>
