<svg xmlns="http://www.w3.org/2000/svg" width="156" height="156" viewBox="0 0 156 156"><g data-name="Group 62"><g data-name="Group 48"><circle data-name="Ellipse 1" cx="78" cy="78" r="78" fill="#f6f6f6"/></g><path data-name="Path 6441" d="M117.498 75.904a39.378 39.378 0 00-11.081-22.562 38.438 38.438 0 00-23.164-11.215h-7.209a3.806 3.806 0 00-.868.067h-.2a2.5 2.5 0 00-.668.067h-.334a1.47 1.47 0 00-.534.067h-.334a1.848 1.848 0 00-.6.067h-.4a2.372 2.372 0 00-.668.134 26290.151 26290.151 0 00-.8.134 1.238 1.238 0 00-.467.134.6.6 0 00-.334.067 1.571 1.571 0 00-.534.134h-.069c-.467.134-.935.267-1.335.4-.2.067-.467.134-.668.2h-.067a38.538 38.538 0 00-15.62 9.612 41 41 0 00-2.8 3.137l-.134.133a39.3 39.3 0 00-3.276 43.922 6.66 6.66 0 004.139 3.2 8.4 8.4 0 001.8.267 6.874 6.874 0 003.4-.935 7.091 7.091 0 003.2-4.139 6.79 6.79 0 00-.668-5.207 25.5 25.5 0 01-3.2-16.087 23.517 23.517 0 011-4.406c.134-.4.267-.734.4-1.135a.506.506 0 01.134-.267c0-.2.134-.334.2-.534 0-.134.067-.2.134-.334s.133-.334.2-.467a3.254 3.254 0 01.2-.467 2.706 2.706 0 01.334-.6l.2-.4.2-.4c.067-.134.2-.334.267-.467 0-.133.134-.2.2-.334a4.489 4.489 0 01.467-.734c0-.067.134-.2.2-.267a2.342 2.342 0 00.334-.534c0-.067.134-.2.2-.267a5.774 5.774 0 00.481-.661l.067-.067c.2-.267.4-.467.6-.734a.96.96 0 01.134-.2 4.319 4.319 0 01.534-.6s.134-.134.134-.2a6.293 6.293 0 01.668-.668 25.158 25.158 0 0117.89-7.476h2.67a25.339 25.339 0 0122.361 21.957 26.378 26.378 0 01-.2 7.944l-15.687-6.008a9.429 9.429 0 00-2.6-5.273 9.227 9.227 0 00-13.15 0A9.346 9.346 0 0085.79 87.118c.267-.267.467-.534.734-.8l16.555 2.737a24 24 0 01-1.936 4.205 6.866 6.866 0 002.537 9.345 6.627 6.627 0 005.14.668 6.84 6.84 0 004.139-3.2 38.712 38.712 0 004.539-24.546zm-43.056 9.545a6.278 6.278 0 018.878-8.878 5.809 5.809 0 011.2 1.736l-4.339-1.669a4.169 4.169 0 00-3.338.2 4.8 4.8 0 00-2.4 2.937 4.6 4.6 0 00.6 3.738 4.131 4.131 0 002.737 1.869l4.606.734a6.286 6.286 0 01-8.01-.734zm11.281-1.8l-7.41-1.2a.88.88 0 01-.668-.467 1.572 1.572 0 01-.2-1.335 1.705 1.705 0 01.8-1 1.258 1.258 0 01.534-.134h.334l6.942 2.67 7.009 2.67-7.41-1.2zM66.034 55.611l-3.8-6.609a31.958 31.958 0 015.407-2.27 35.929 35.929 0 019.679-1.736v7.61a27.923 27.923 0 00-11.348 3.071zm-4.539 2.937c-.935.734-1.8 1.535-2.67 2.336l-.4.4a28.861 28.861 0 00-3.338 4.205l-5.407-3.137-1.135-.668a33.209 33.209 0 012.2-3.137 37.38 37.38 0 012.67-3 36.016 36.016 0 014.606-3.938c.467-.334 1-.668 1.469-1l3.471 6.008.334.6c-.534.334-1.068.734-1.6 1.135a1.172 1.172 0 00-.334.267zM43.269 76.371a36 36 0 013.738-12.015l6.542 3.8c-.067.2-.2.4-.267.6a.245.245 0 01-.067.2c0 .133-.134.267-.2.4a.245.245 0 01-.067.2c0 .133-.134.267-.2.4a.245.245 0 01-.067.2c0 .133-.134.267-.2.4a.33.33 0 01-.067.2c0 .2-.134.334-.2.534v.067c-.134.4-.334.868-.467 1.335a3.6 3.6 0 01-.2.668 28.354 28.354 0 00-.8 4.005l-.2 2.2h-7.545a25.925 25.925 0 01.267-3.2zm11.014 18.956a4.247 4.247 0 01.4 2.87 3.544 3.544 0 01-1.736 2.27 3.6 3.6 0 01-2.87.4 3.544 3.544 0 01-2.27-1.736 36.5 36.5 0 01-4.806-16.488h7.543a29.414 29.414 0 003.738 12.75zm27.235-42.653h-1.135v-7.61h2.27a36.053 36.053 0 0112.881 3.872l-3.8 6.609a28.22 28.22 0 00-10.149-2.938zm21.094 12.817a28.673 28.673 0 00-8.344-8.344l3.8-6.609a36.555 36.555 0 0111.081 11.081l-6.542 3.8zm1.535 2.67l6.542-3.8a35.534 35.534 0 013.738 12.015c.134 1.068.2 2.136.267 3.2h-7.543c0-.734-.134-1.469-.2-2.2a27.1 27.1 0 00-2.871-9.149zm5.807 30.973a3.718 3.718 0 01-2.27 1.736 3.639 3.639 0 01-2.87-.4 3.808 3.808 0 01-1.4-5.14 28.78 28.78 0 002.336-5.273l1.869.334h.267a1.563 1.563 0 001.469-1.135 1.511 1.511 0 00-.935-1.8l-1.736-.668a30.191 30.191 0 00.534-4.205h7.543a35.235 35.235 0 01-4.806 16.488z" fill="#27a6bf"/></g></svg>