<svg xmlns="http://www.w3.org/2000/svg" width="156" height="156" viewBox="0 0 156 156"><g data-name="Group 61"><g data-name="Group 48"><circle data-name="Ellipse 1" cx="78" cy="78" r="78" fill="#f6f6f6"/></g><g data-name="Group 58" fill="#27a6bf"><path data-name="Path 6437" d="M85.668 100.735c-4.437 3.217-8.319 4.714-9.373 4.714s-7.764-2.607-13.751-8.43a37.909 37.909 0 01-11.48-27.73V56.2a108.746 108.746 0 0025.232-10.759A114.84 114.84 0 00101.53 56.2v13.089a40.262 40.262 0 01-.277 4.6 21.6 21.6 0 012.718.666 40.087 40.087 0 00.333-5.269v-14.14a1.433 1.433 0 00-1-1.331 109.573 109.573 0 01-26.287-11.147 1.258 1.258 0 00-1.387 0 106.493 106.493 0 01-26.286 11.147 1.365 1.365 0 00-1 1.331v14.143A40.672 40.672 0 0060.656 98.96c6.045 5.934 13.089 9.206 15.7 9.206s6.544-1.941 11.258-5.435a13.362 13.362 0 01-1.886-2.052z"/><path data-name="Path 6437 - Outline" d="M76.351 108.502c-1.447 0-3.958-.9-6.718-2.419a42.568 42.568 0 01-9.21-6.883A41.354 41.354 0 0152.1 87.662a41.812 41.812 0 01-4.089-18.374v-14.14a1.7 1.7 0 011.242-1.653 106.174 106.174 0 0026.2-11.109 1.591 1.591 0 011.738 0 109.287 109.287 0 0026.2 11.109h.012a1.767 1.767 0 011.23 1.64v14.15a40.568 40.568 0 01-.336 5.311l-.051.394-.379-.119a21.345 21.345 0 00-2.676-.655l-.309-.055.037-.312a40.089 40.089 0 00.275-4.565V56.449a115.3 115.3 0 01-24.9-10.624 109.154 109.154 0 01-24.9 10.626v12.837a37.567 37.567 0 0011.38 27.492 39.475 39.475 0 008.653 6.344 17.113 17.113 0 004.868 1.991 10.723 10.723 0 003.277-1.119 36.809 36.809 0 005.88-3.516l.309-.309.23.309a13.054 13.054 0 001.839 2l.308.272-.327.25c-3.389 2.505-8.125 5.5-11.46 5.5zm-.028-65.71a.923.923 0 00-.51.153l-.013.008a106.84 106.84 0 01-26.37 11.182 1.033 1.033 0 00-.753 1.006v14.147a41.152 41.152 0 004.022 18.081 40.691 40.691 0 008.19 11.353 41.893 41.893 0 009.064 6.774c2.627 1.441 5.078 2.337 6.4 2.337a11.407 11.407 0 004.694-1.374 40.534 40.534 0 006.041-3.756 13.73 13.73 0 01-1.422-1.555c-4.224 3.024-8.138 4.633-9.368 4.633a16.877 16.877 0 01-5.184-2.071 40.152 40.152 0 01-8.8-6.453 38.22 38.22 0 01-11.586-27.969v-13.34l.242-.069a108.485 108.485 0 0025.157-10.726l.167-.1.167.1a114.631 114.631 0 0025.162 10.727l.24.07v13.338a40.776 40.776 0 01-.244 4.332c.7.134 1.39.3 2.07.5a39.916 39.916 0 00.281-4.834V55.15a1.1 1.1 0 00-.761-1.016 109.952 109.952 0 01-26.361-11.18l-.015-.009a.923.923 0 00-.51-.153z"/><path data-name="Path 6438" d="M92.046 63.687a4.548 4.548 0 00-3.161-1.331 4.319 4.319 0 00-3.161 1.331L71.859 77.556l-4.992-5a4.548 4.548 0 00-3.161-1.331 4.319 4.319 0 00-3.161 1.331 4.486 4.486 0 000 6.378l8.153 8.153a4.548 4.548 0 003.161 1.331 4.319 4.319 0 003.161-1.331l17.026-17.022a4.486 4.486 0 000-6.378zm-1.941 4.381L73.079 85.094a1.741 1.741 0 01-2.44 0l-8.153-8.153a1.726 1.726 0 012.44-2.44l5.934 5.934a1.337 1.337 0 001 .388 1.594 1.594 0 001-.388l14.805-14.807a1.726 1.726 0 112.44 2.44z"/><path data-name="Path 6438 - Outline" d="M88.842 62.023h.046a4.843 4.843 0 013.393 8.278L75.258 87.323a4.671 4.671 0 01-3.4 1.431 4.855 4.855 0 01-3.393-1.428l-8.155-8.153a4.818 4.818 0 010-6.847 4.673 4.673 0 013.4-1.43 4.855 4.855 0 013.392 1.427l4.756 4.756 13.623-13.625a4.674 4.674 0 013.361-1.431zM71.901 88.089a4 4 0 002.878-1.229v-.005l17.032-17.026a4.187 4.187 0 00-2.93-7.141h-.039a4 4 0 00-2.878 1.229v.005l-14.1 14.1-5.227-5.227a4.192 4.192 0 00-2.93-1.234h-.039a4 4 0 00-2.887 1.229l-.006.006a4.153 4.153 0 000 5.9l8.154 8.154a4.192 4.192 0 002.93 1.234zm16.98-23.293a2.062 2.062 0 011.453.595 2.074 2.074 0 010 2.907L73.312 85.332a2.074 2.074 0 01-2.907 0l-8.155-8.155a2.074 2.074 0 010-2.907 2.074 2.074 0 012.907 0l5.934 5.934a1 1 0 00.749.291 1.265 1.265 0 00.781-.3l14.8-14.8a2.062 2.062 0 011.46-.599zm.985 1.067a1.408 1.408 0 00-1.971 0l-14.82 14.824a1.932 1.932 0 01-1.2.469 1.66 1.66 0 01-1.245-.485l-5.933-5.933a1.408 1.408 0 00-1.971 0 1.415 1.415 0 000 1.971l8.15 8.15a1.408 1.408 0 001.973 0l17.019-17.025a1.415 1.415 0 00.002-1.971z"/><g data-name="Group 55"><path data-name="Path 6439" d="M98.424 83.764v8.43l-4.1 4.1a1.1 1.1 0 101.553 1.553l.333-.333 4.1-4.1a1.1 1.1 0 00.333-.776v-8.929a1.054 1.054 0 00-.277-.721 1.18 1.18 0 00-.832-.388 1.112 1.112 0 00-1.109 1.109z"/><path data-name="Path 6439 - Outline" d="M99.539 82.266h.007a1.521 1.521 0 011.067.5 1.381 1.381 0 01.363.947v8.928a1.437 1.437 0 01-.432 1.011l-4.432 4.432a1.431 1.431 0 11-2.023-2.024l4-4v-8.348a1.449 1.449 0 011.441-1.442zm.771 10.369v-8.927a.721.721 0 00-.19-.5.853.853 0 00-.592-.28.782.782 0 00-.771.777v8.622l-4.207 4.207a.739.739 0 000 1.071l.012.012a.739.739 0 001.071 0l.006-.006 4.44-4.44a.767.767 0 00.231-.536z"/><path data-name="Path 6440" d="M104.91 85.428a1.113 1.113 0 001.109 1.109h3.391a3.354 3.354 0 001.83-.5.172.172 0 00.111-.055 3.574 3.574 0 001.608-2.995v-3.272a1.109 1.109 0 10-2.218 0v3.106a14.352 14.352 0 00-6.711-5.6 15.765 15.765 0 00-3.161-.887 12.974 12.974 0 00-2.107-.166 14.316 14.316 0 00-10.094 4.159 14.087 14.087 0 00-4.159 10.094 13 13 0 002.995 8.763 8.357 8.357 0 001.165 1.276 12.389 12.389 0 002.662 2.107 1.946 1.946 0 00.444.277 1.213 1.213 0 01.277.166h.111a13.887 13.887 0 004.437 1.442 14.192 14.192 0 003.438.111 13.668 13.668 0 003.827-.887 2.974 2.974 0 00.61-.277.333.333 0 00.222-.055 6.325 6.325 0 001.054-.555c.111 0 .166-.111.222-.166.277-.166.5-.333.776-.5a11.677 11.677 0 002.5-2.163c.055 0 .166-.111.222-.166.277-.277.5-.61.776-.943.055-.111.111-.166.166-.277a14.142 14.142 0 001.83-3.66l.166-.333.333-1.165v-.61a1.079 1.079 0 00-.832-.776 1.145 1.145 0 00-1.331.832 6.7 6.7 0 01-.277 1 11.961 11.961 0 01-4.548 6.267 11.468 11.468 0 01-2.939 1.553 13.424 13.424 0 01-3.6.721h-3.161a.7.7 0 01-.333-.055h-.166a.788.788 0 01-.333-.111c-.166 0-.277-.111-.444-.166a12.457 12.457 0 01-3.383-1.83 11.591 11.591 0 01-2.329-2.329 12.007 12.007 0 019.65-19.189c6.655 0 1.054 0 1.553.111a12.157 12.157 0 013.161.887 11.828 11.828 0 015.6 4.936h-3.05a1.113 1.113 0 00-1.109 1.109z"/><path data-name="Path 6440 - Outline" d="M98.792 75.833a13.351 13.351 0 012.125.171 16.128 16.128 0 013.228.906 14.686 14.686 0 016.255 4.84v-2.035a1.442 1.442 0 112.884 0v3.272a3.9 3.9 0 01-1.732 3.255.5.5 0 01-.2.109 3.684 3.684 0 01-1.958.518h-3.38a1.45 1.45 0 01-1.4-1.1l-.1-.008a1.449 1.449 0 011.441-1.441h2.455a11.5 11.5 0 00-5.135-4.3 11.829 11.829 0 00-3.077-.864h-.026a.385.385 0 01-.2-.1h-1.295a11.674 11.674 0 00-9.355 18.657 11.252 11.252 0 002.262 2.262 12.114 12.114 0 003.292 1.782 1.457 1.457 0 01.216.1.412.412 0 00.119.051h.093l.08.048a.458.458 0 00.178.063h.215l.063.027a.369.369 0 00.175.029h3.177a13.09 13.09 0 003.506-.7 11.126 11.126 0 002.852-1.507 11.629 11.629 0 004.421-6.093l.005-.016a6.39 6.39 0 00.264-.949v-.021a1.477 1.477 0 011.718-1.074 1.4 1.4 0 011.088 1.016l.012.043v.7l-.354 1.239-.169.339a14.464 14.464 0 01-1.853 3.7 1.626 1.626 0 01-.092.151.925.925 0 00-.062.1l-.017.035-.025.03c-.1.115-.188.234-.276.348a6.264 6.264 0 01-.521.617 1.156 1.156 0 01-.262.213 12 12 0 01-2.511 2.161l-.009.006c-.132.079-.25.158-.375.241s-.228.152-.355.23a.609.609 0 01-.318.227 6.674 6.674 0 01-1.022.534.662.662 0 01-.285.091 3.313 3.313 0 01-.588.258 13.994 13.994 0 01-3.911.905c-.427.038-.862.058-1.293.058a14.577 14.577 0 01-2.225-.171 14.179 14.179 0 01-4.467-1.438h-.146l-.091-.073a.878.878 0 00-.2-.121h-.005a2.279 2.279 0 01-.5-.307 12.721 12.721 0 01-2.7-2.141 8.706 8.706 0 01-1.2-1.31 13.321 13.321 0 01-3.066-8.973 14.419 14.419 0 014.258-10.325 14.649 14.649 0 0110.324-4.256zm2.017.827a12.683 12.683 0 00-2.017-.162h-.04a13.983 13.983 0 00-9.855 4.063 13.754 13.754 0 00-4.061 9.855v.014a12.655 12.655 0 002.918 8.538l.012.015a8.037 8.037 0 001.118 1.225l.019.018a12.056 12.056 0 002.591 2.051l.023.014.021.017a1.614 1.614 0 00.365.229 1.544 1.544 0 01.252.138h.084l.073.038a13.522 13.522 0 004.33 1.407 13.914 13.914 0 002.125.164c.411 0 .826-.019 1.235-.055a13.332 13.332 0 003.735-.866l.018-.007a2.642 2.642 0 00.542-.246l.1-.057.111.012.028-.019.032-.013a6.007 6.007 0 001-.525l.083-.054h.025a.853.853 0 01.061-.069l.029-.029.035-.021c.132-.079.25-.158.375-.241s.253-.169.4-.255a11.341 11.341 0 002.42-2.1l.1-.115h.067c.027-.024.058-.056.072-.069a5.769 5.769 0 00.465-.554c.085-.11.173-.224.268-.339.03-.056.06-.1.085-.138a.919.919 0 00.062-.1l.011-.022.014-.02a13.8 13.8 0 001.787-3.574l.008-.023.163-.327.311-1.09v-.515a.741.741 0 00-.564-.5.811.811 0 00-.942.581 7.06 7.06 0 01-.286 1.029 12.295 12.295 0 01-4.67 6.432 11.794 11.794 0 01-3.022 1.6 13.762 13.762 0 01-3.7.739h-3.17a1.032 1.032 0 01-.406-.055h-.137a1.129 1.129 0 01-.4-.116.99.99 0 01-.33-.12.861.861 0 00-.121-.056h-.006a12.772 12.772 0 01-3.473-1.879 11.913 11.913 0 01-2.394-2.395 12.34 12.34 0 019.888-19.721h3.283a.339.339 0 01.363.33.351.351 0 01-.072.211 12.492 12.492 0 011.3.48 12.16 12.16 0 015.757 5.074l.291.5h-3.629a.626.626 0 10.056 1.22h3.389a3.022 3.022 0 001.649-.45l.066-.041h.026l.011-.007a3.232 3.232 0 001.459-2.716V79.72a.776.776 0 00-1.553 0v4.25l-.614-.966a14.019 14.019 0 00-6.555-5.472 15.457 15.457 0 00-3.093-.872z"/></g></g></g></svg>