<?xml version="1.0" encoding="utf-8"?>
<!-- Generator: Adobe Illustrator 26.5.0, SVG Export Plug-In . SVG Version: 6.00 Build 0)  -->
<svg version="1.1" id="Layer_1" xmlns="http://www.w3.org/2000/svg" xmlns:xlink="http://www.w3.org/1999/xlink" x="0px" y="0px"
	 viewBox="0 0 156 156" style="enable-background:new 0 0 156 156;" xml:space="preserve">
<style type="text/css">
	.st0{fill:#F6F6F6;}
	.st1{fill:#2AA7C0;}
	.st2{fill:#2AA7C0;stroke:#2AA7C0;stroke-miterlimit:10;}
</style>
<g>
	<g>
		<g>
			<circle class="st0" cx="78" cy="78" r="78"/>
		</g>
	</g>
	<g>
		<path class="st1" d="M79.5,33.3c1.7,0.2,3.4,0.4,5,0.7c1.6,0.3,3.3,0.7,4.9,1.1c1.7,0.5,2.7,2,2.2,3.6c-0.5,1.6-2,2.4-3.7,1.9
			c-5-1.4-10.1-1.9-15.3-1.4c-6.8,0.7-13,2.9-18.6,6.8C45.3,52.2,39.5,60.5,37.5,71c-2.8,14.1,1,26.4,11.1,36.7
			c5.5,5.6,12.2,9.2,20,10.7c15,2.8,27.8-1.5,38.1-12.8c5.3-5.8,8.4-12.8,9.6-20.6c0.9-5.6,0.5-11.2-1.1-16.7
			c-0.2-0.6-0.3-1.2-0.2-1.7c0.2-1.4,1.3-2.3,2.6-2.4c1.4-0.1,2.6,0.7,3,2.2c0.5,2.2,1.1,4.5,1.4,6.7c1.5,12-1.1,23.1-8.2,32.9
			C106,116.7,95.3,123,82,124.6c-24,2.9-46.4-13.8-50.4-37.6c-0.3-1.7-0.5-3.4-0.7-5c0-1.9,0-3.8,0-5.7c0.3-2,0.5-4.1,0.9-6.1
			C35.2,51.9,50.4,37,68.7,34c1.7-0.3,3.4-0.5,5.1-0.7C75.7,33.3,77.6,33.3,79.5,33.3z"/>
		<path class="st1" d="M106.6,33.3c1.5,0.7,2.1,1.9,2.2,3.5c0.1,2.9,0.5,5.8,0.7,8.7c0,0.6,0.2,0.8,0.8,0.8c3.2,0.2,6.3,0.5,9.5,0.7
			c1.2,0.1,2.2,0.7,2.6,1.8c0.5,1.2,0.2,2.2-0.7,3.1c-3.4,3.4-6.7,6.8-10.1,10.1c-0.5,0.5-1.4,0.9-2.2,1c-3.8,0.4-7.6,0.8-11.5,1.2
			c-0.7,0.1-1.3,0.1-2,0.2c-0.4,0.1-0.7,0.3-1,0.6C89.5,70.3,84.3,75.6,79,80.8c-0.5,0.5-1.3,0.9-2,1.1c-1.2,0.3-2.2-0.3-2.8-1.3
			c-0.6-1-0.5-2.3,0.2-3.2c0.2-0.3,0.5-0.5,0.7-0.8c5.2-5.2,10.3-10.3,15.5-15.5c0.4-0.4,0.7-0.9,0.7-1.5c0.4-4.3,0.8-8.5,1.2-12.8
			c0.1-1.1,0.5-2,1.3-2.8c3.1-3,6.1-6.1,9.1-9.1c0.6-0.6,1.3-1,2-1.6C105.6,33.3,106.1,33.3,106.6,33.3z M113.2,52.4
			c-0.5,0-0.7-0.1-0.9-0.1c-1.9-0.2-3.9-0.3-5.8-0.5c-1.4-0.2-2.3-1-2.5-2.5c-0.2-1.3-0.2-2.6-0.3-3.8c-0.1-0.9-0.2-1.8-0.3-2.9
			c-1.7,1.7-3.3,3.3-4.9,4.9c-0.2,0.2-0.3,0.5-0.3,0.8c-0.2,2.1-0.4,4.3-0.7,6.4c-0.1,1.3-0.2,2.5-0.4,3.9c3.6-0.4,7-0.7,10.5-1.1
			c0.2,0,0.4-0.1,0.5-0.3C109.9,55.7,111.5,54.1,113.2,52.4z"/>
		<path class="st1" d="M45.1,79.9c0-16.4,11.6-29.8,27.1-32c4.3-0.6,8.6-0.4,12.8,0.8c1.4,0.4,2.2,1.4,2.2,2.7c0,1.3-0.7,2.4-2,2.7
			c-0.7,0.2-1.4,0.1-2.1-0.1c-9.7-2.1-18.2,0.2-25.1,7.3c-13.3,13.8-7.1,37,11.3,42.5c14.6,4.4,29.8-4.7,32.8-19.7
			c0.8-3.9,0.6-7.8-0.3-11.6c-0.5-1.8,0.4-3.4,2-3.8c1.7-0.4,3.1,0.6,3.6,2.4c4.7,17.9-7.2,36.2-25.6,39.2
			c-17.4,2.8-33.8-9.2-36.3-26.7C45.2,82.1,45.1,80.6,45.1,79.9z"/>
		<path class="st1" d="M77.1,67.7C71,67.5,66,71.9,65.3,78c-0.7,5.6,3.2,11,8.9,12.3c6.8,1.6,13.7-3.6,13.9-10.6
			c0-0.4,0-0.8,0.1-1.2c0.3-1.4,1.7-2.4,3.1-2.2c1.5,0.2,2.6,1.4,2.5,3c-0.3,7-3.5,12.3-9.8,15.4c-11.7,5.7-25.4-3.6-24.5-16.6
			c0.6-9.4,8.9-16.7,18.3-16c1,0.1,1.9,0.2,2.6,1c0.8,0.9,1,1.9,0.5,3c-0.5,1-1.3,1.6-2.4,1.7C78,67.8,77.5,67.7,77.1,67.7z"/>
	</g>
</g>
</svg>
