<?xml version="1.0" encoding="utf-8"?>
<!-- Generator: Adobe Illustrator 26.5.0, SVG Export Plug-In . SVG Version: 6.00 Build 0)  -->
<svg version="1.1" id="Layer_1" xmlns="http://www.w3.org/2000/svg" xmlns:xlink="http://www.w3.org/1999/xlink" x="0px" y="0px"
	 viewBox="0 0 156 156" style="enable-background:new 0 0 156 156;" xml:space="preserve">
<style type="text/css">
	.st0{fill:#F6F6F6;}
	.st1{fill:#2AA7C0;stroke:#2AA7C0;stroke-width:2;stroke-miterlimit:10;}
	.st2{fill:#2AA7C0;stroke:#2AA7C0;stroke-width:0.25;stroke-miterlimit:10;}
	.st3{fill:#2AA7C0;stroke:#2AA7C0;stroke-miterlimit:10;}
	.st4{fill:#2AA7C0;stroke:#2AA7C0;stroke-width:0.2725;stroke-miterlimit:10;}
	.st5{fill:#2AA7C0;stroke:#2AA7C0;stroke-width:1.5;stroke-miterlimit:10;}
	.st6{fill:#2AA7C0;stroke:#2AA7C0;stroke-width:2.315;stroke-miterlimit:10;}
	.st7{fill:#2AA7C0;stroke:#2AA7C0;stroke-width:0.6025;stroke-miterlimit:10;}
</style>
<g>
	<g>
		<g>
			<circle class="st0" cx="78" cy="78" r="78"/>
		</g>
	</g>
</g>
<g>
	<path class="st2" d="M29.9,64.9c0.4-1.7,0.9-3.4,2.2-4.6c0.9-0.9,2-1.6,3-2.3c0.6-0.3,0.8-0.6,0.8-1.2c0-6.7,0-13.5,0-20.2
		c0-2.4,1-3.4,3.4-3.4c5.6,0,11.3,0,16.9,0c2.3,0,3.3,1.1,3.3,3.3c0,3.7,0,7.4,0,11.1c0,2.1-1.1,3.2-3.2,3.2c-4.9,0-9.8,0-14.7,0
		c0,0.3-0.1,0.5-0.1,0.7c0,1,0,1.9,0,2.9c0,0.9-0.3,2,0.1,2.8c0.3,0.7,1.4,1,2.1,1.6c1.4,1,2.4,2.2,3,3.7c0.2,0.6,0.5,0.7,1.1,0.7
		c4.9,0,9.9,0,14.8,0c7.1,0.1,13,4.8,14.5,11.7c2,8.8-4.7,17.6-13.7,17.9c-6.2,0.2-12.3,0-18.5,0.1c-3.8,0-6.7,1.7-8.5,5.1
		c-2.5,4.7,0.1,11.1,5.2,12.7c1.1,0.3,2.3,0.5,3.5,0.5c16.9,0,33.7,0,50.6,0c0.7,0,1.1-0.2,1.4-0.9c1.6-3.7,5.3-5.6,9.6-5
		c3.6,0.5,6.6,3.7,7.1,7.5c0.6,4.5-2.1,8.4-6.6,9.7c-4,1.1-8.5-1-10.1-5c-0.3-0.7-0.6-0.8-1.3-0.8c-16.9,0-33.8,0-50.8,0
		c-6.5,0-11.2-3-13.9-8.9c-0.6-1.3-0.9-2.8-1.3-4.3c0-1.1,0-2.3,0-3.4c0.3-1,0.5-2.1,0.8-3.1c2.1-6.1,7.6-10,14.1-10.1
		c6,0,12,0,18,0c5,0,9.1-4.2,9.1-9.1c0-5-4-9.2-9-9.3c-4.9-0.1-9.9,0-14.8,0c-0.8,0-1.1,0.3-1.4,0.9c-2.6,5.8-10.6,6.8-14.7,1.9
		c-1.2-1.4-1.7-3-2.1-4.7C29.9,66.2,29.9,65.5,29.9,64.9z M53.9,38.8c-4.2,0-8.2,0-12.3,0c0,2.1,0,4.2,0,6.3c4.1,0,8.2,0,12.3,0
		C53.9,43,53.9,40.9,53.9,38.8z M42,66c0-1.7-1.5-3.1-3.2-3.2c-1.8,0-3.2,1.5-3.2,3.2c0,1.7,1.5,3.1,3.2,3.2
		C40.5,69.2,42,67.7,42,66z M105.2,117.2c1.7,0,3.2-1.4,3.2-3.1c0-1.8-1.4-3.2-3.2-3.2c-1.7,0-3.2,1.4-3.2,3.1
		C102,115.7,103.5,117.2,105.2,117.2z"/>
	<path class="st2" d="M104.4,39.1c13.7,0,23.6,11.7,21.4,24.3c-0.8,4.6-2.9,8.5-6.3,11.8c-0.5,0.5-1,1.1-1.3,1.7
		c-3.4,6.6-6.7,13.2-10.1,19.8c-0.2,0.4-0.4,0.8-0.7,1.1c-1.1,1.4-3.2,1.4-4.3,0c-0.3-0.3-0.5-0.7-0.7-1.1
		C99,90,95.6,83.4,92.3,76.8c-0.3-0.5-0.7-1.1-1.1-1.5c-7.6-7.2-9-18-3.3-26.7C91.9,42.4,97.9,39.4,104.4,39.1z M105.2,89.7
		c0.2-0.4,0.4-0.7,0.5-1c2.5-4.9,5-9.8,7.5-14.7c0.6-1.1,1.3-2,2.2-2.9c4.4-3.9,6.1-10.5,4.2-16c-2-5.9-7.4-10-13.4-10.4
		c-6.5-0.4-12.6,3.4-15,9.3c-2.5,6.1-0.9,12.9,4.1,17.3c0.7,0.6,1.3,1.4,1.7,2.2c2.6,5,5.2,10.1,7.7,15.1
		C104.8,89.1,105,89.3,105.2,89.7z"/>
	<path class="st2" d="M114,60c0,4.8-4.1,8.9-8.9,8.8c-4.8,0-8.8-4-8.8-8.8c0-4.8,4.1-8.9,8.9-8.8C110.1,51.2,114,55.2,114,60z
		 M105.2,63.2c1.7,0,3.2-1.4,3.2-3.1c0-1.8-1.4-3.2-3.2-3.2c-1.7,0-3.2,1.4-3.2,3.1C102,61.7,103.5,63.2,105.2,63.2z"/>
</g>
</svg>
